<svg width="40" height="40" viewBox="0 0 40 40" fill="none" xmlns="http://www.w3.org/2000/svg">
<rect width="40" height="40" rx="20" fill="#A0A0A0" fill-opacity="0.2"/>
<path d="M21.122 11.71C21.122 12.0567 21.2347 12.3513 21.46 12.594C21.7027 12.8193 21.9973 12.932 22.344 12.932C22.6907 12.932 22.9767 12.8193 23.202 12.594C23.4447 12.3513 23.566 12.0567 23.566 11.71C23.566 11.3633 23.4447 11.0773 23.202 10.852C22.9767 10.6093 22.6907 10.488 22.344 10.488C21.9973 10.488 21.7027 10.6093 21.46 10.852C21.2347 11.0773 21.122 11.3633 21.122 11.71ZM19.51 18.21L16.832 25.828C16.728 26.1227 16.624 26.452 16.52 26.816C16.416 27.1627 16.364 27.4833 16.364 27.778C16.364 28.3327 16.5287 28.7313 16.858 28.974C17.2047 29.1993 17.664 29.312 18.236 29.312C18.756 29.312 19.2067 29.208 19.588 29C19.9693 28.792 20.29 28.5493 20.55 28.272C20.81 27.9773 21.0093 27.6913 21.148 27.414C21.304 27.1193 21.4167 26.9027 21.486 26.764L21.174 26.634C21.1047 26.79 20.992 26.998 20.836 27.258C20.68 27.518 20.4893 27.778 20.264 28.038C20.0387 28.2807 19.7873 28.4973 19.51 28.688C19.25 28.8787 18.9813 28.974 18.704 28.974C18.4613 28.974 18.2793 28.9047 18.158 28.766C18.0367 28.61 17.976 28.428 17.976 28.22C17.976 27.9773 18.0193 27.726 18.106 27.466C18.1927 27.1887 18.2793 26.92 18.366 26.66L21.434 17.846H17.3L17.196 18.21H19.51Z" fill="#2D2D2D"/>
</svg>
