<svg width="40" height="40" viewBox="0 0 40 40" fill="none" xmlns="http://www.w3.org/2000/svg">
<rect width="40" height="40" rx="20" fill="#A0A0A0" fill-opacity="0.1"/>
<path d="M7.64645 19.6464C7.45118 19.8417 7.45118 20.1583 7.64645 20.3536L10.8284 23.5355C11.0237 23.7308 11.3403 23.7308 11.5355 23.5355C11.7308 23.3403 11.7308 23.0237 11.5355 22.8284L8.70711 20L11.5355 17.1716C11.7308 16.9763 11.7308 16.6597 11.5355 16.4645C11.3403 16.2692 11.0237 16.2692 10.8284 16.4645L7.64645 19.6464ZM32.3536 20.3536C32.5488 20.1583 32.5488 19.8417 32.3536 19.6464L29.1716 16.4645C28.9763 16.2692 28.6597 16.2692 28.4645 16.4645C28.2692 16.6597 28.2692 16.9763 28.4645 17.1716L31.2929 20L28.4645 22.8284C28.2692 23.0237 28.2692 23.3403 28.4645 23.5355C28.6597 23.7308 28.9763 23.7308 29.1716 23.5355L32.3536 20.3536ZM8 20.5H32V19.5H8V20.5Z" fill="#A0A0A0"/>
<path d="M20.3536 7.64645C20.1583 7.45118 19.8417 7.45118 19.6464 7.64645L16.4645 10.8284C16.2692 11.0237 16.2692 11.3403 16.4645 11.5355C16.6597 11.7308 16.9763 11.7308 17.1716 11.5355L20 8.70711L22.8284 11.5355C23.0237 11.7308 23.3403 11.7308 23.5355 11.5355C23.7308 11.3403 23.7308 11.0237 23.5355 10.8284L20.3536 7.64645ZM19.6464 32.3536C19.8417 32.5488 20.1583 32.5488 20.3536 32.3536L23.5355 29.1716C23.7308 28.9763 23.7308 28.6597 23.5355 28.4645C23.3403 28.2692 23.0237 28.2692 22.8284 28.4645L20 31.2929L17.1716 28.4645C16.9763 28.2692 16.6597 28.2692 16.4645 28.4645C16.2692 28.6597 16.2692 28.9763 16.4645 29.1716L19.6464 32.3536ZM19.5 8L19.5 32L20.5 32L20.5 8L19.5 8Z" fill="#A0A0A0"/>
</svg>
