<svg width="40" height="40" viewBox="0 0 40 40" fill="none" xmlns="http://www.w3.org/2000/svg">
<rect width="40" height="40" rx="20" fill="#F65485" fill-opacity="0.1"/>
<path d="M22.4702 30.0712C22.7369 29.9997 22.8952 29.7255 22.8237 29.4588C22.7522 29.192 22.4781 29.0338 22.2113 29.1052L22.4702 30.0712ZM16.1583 29.2607L15.9786 29.7273L16.1583 29.2607ZM11.3536 25.3564L11.7735 25.085L11.7735 25.085L11.3536 25.3564ZM9.76809 19.3717L9.26886 19.3439L9.76809 19.3717ZM17.219 10.2552L17.3457 10.7389L17.219 10.2552ZM23.3995 10.6176L23.5818 10.1521L23.3995 10.6176ZM28.1821 14.5491L28.6036 14.2801L28.6036 14.2801L28.1821 14.5491ZM29.3591 20.8738C29.542 21.0806 29.858 21.1001 30.0649 20.9171L33.4361 17.9364C33.643 17.7535 33.6624 17.4375 33.4795 17.2306C33.2966 17.0238 32.9806 17.0043 32.7738 17.1873L29.7771 19.8368L27.1276 16.8401C26.9446 16.6333 26.6287 16.6138 26.4218 16.7967C26.2149 16.9797 26.1955 17.2956 26.3784 17.5025L29.3591 20.8738ZM22.2113 29.1052C20.2699 29.6254 18.2136 29.5165 16.338 28.7941L15.9786 29.7273C18.0516 30.5257 20.3244 30.6461 22.4702 30.0712L22.2113 29.1052ZM16.338 28.7941C14.4625 28.0717 12.8643 26.7731 11.7735 25.085L10.9336 25.6277C12.1393 27.4935 13.9056 28.9288 15.9786 29.7273L16.338 28.7941ZM11.7735 25.085C10.6827 23.3969 10.1553 21.4063 10.2673 19.3996L9.26886 19.3439C9.14508 21.5618 9.72794 23.7619 10.9336 25.6277L11.7735 25.085ZM10.2673 19.3996C10.3793 17.3928 11.1249 15.4733 12.3968 13.9171L11.6225 13.2842C10.2167 15.0043 9.39265 17.1259 9.26886 19.3439L10.2673 19.3996ZM12.3968 13.9171C13.6687 12.3608 15.4014 11.2481 17.3457 10.7389L17.0923 9.77152C14.9433 10.3343 13.0283 11.5642 11.6225 13.2842L12.3968 13.9171ZM17.3457 10.7389C19.29 10.2297 21.3457 10.3502 23.2171 11.0832L23.5818 10.1521C21.5134 9.34194 19.2413 9.2087 17.0923 9.77152L17.3457 10.7389ZM23.2171 11.0832C25.0886 11.8162 26.6793 13.1238 27.7606 14.8181L28.6036 14.2801C27.4085 12.4075 25.6502 10.9622 23.5818 10.1521L23.2171 11.0832ZM27.7606 14.8181C28.8419 16.5123 29.358 18.5058 29.2346 20.5119L30.2328 20.5732C30.3691 18.356 29.7987 16.1526 28.6036 14.2801L27.7606 14.8181Z" fill="#F65485"/>
</svg>
