<svg width="40" height="40" viewBox="0 0 40 40" fill="none" xmlns="http://www.w3.org/2000/svg">
<rect width="40" height="40" rx="20" fill="#A0A0A0" fill-opacity="0.1"/>
<rect x="14.5" y="10.5" width="15" height="15" stroke="#A0A0A0"/>
<path d="M15 17.5H10.5V29.5H22.5V25" stroke="#A0A0A0" stroke-width="0.5" stroke-dasharray="1 1"/>
<path d="M18.6464 20.6464C18.4512 20.8417 18.4512 21.1583 18.6464 21.3536C18.8417 21.5488 19.1583 21.5488 19.3536 21.3536L18.6464 20.6464ZM26.5 14C26.5 13.7239 26.2761 13.5 26 13.5L21.5 13.5C21.2239 13.5 21 13.7239 21 14C21 14.2761 21.2239 14.5 21.5 14.5H25.5V18.5C25.5 18.7761 25.7239 19 26 19C26.2761 19 26.5 18.7761 26.5 18.5V14ZM19.3536 21.3536L26.3536 14.3536L25.6464 13.6464L18.6464 20.6464L19.3536 21.3536Z" fill="#A0A0A0"/>
</svg>
